<svg width="191" height="192" viewBox="0 0 191 192" fill="none" xmlns="http://www.w3.org/2000/svg">
<path d="M37.5 138.75H148.125C148.125 138.75 146.25 141 146.25 150C146.25 159 148.125 161.25 148.125 161.25H56.25C51.2772 161.25 46.5081 159.275 42.9917 155.758C39.4754 152.242 37.5 147.473 37.5 142.5V138.75Z" fill="url(#paint0_linear_20_1531)"/>
<path d="M53.4375 15C47.2215 15 41.2601 17.4693 36.8647 21.8647C32.4693 26.2601 30 32.2215 30 38.4375V141.562C30 147.779 32.4693 153.74 36.8647 158.135C41.2601 162.531 47.2215 165 53.4375 165H145.312C146.556 165 147.748 164.506 148.627 163.627C149.506 162.748 150 161.556 150 160.312C150 159.069 149.506 157.877 148.627 156.998C147.748 156.119 146.556 155.625 145.312 155.625H53.4375C50.1957 155.626 47.0532 154.506 44.5418 152.456C42.0305 150.406 40.3046 147.551 39.6562 144.375H141.562C143.8 144.375 145.946 143.486 147.529 141.904C149.111 140.321 150 138.175 150 135.938V38.4375C150 32.2215 147.531 26.2601 143.135 21.8647C138.74 17.4693 132.779 15 126.562 15H53.4375Z" fill="url(#paint1_linear_20_1531)"/>
<path d="M60.9375 37.5C58.6997 37.5 56.5536 38.3889 54.9713 39.9713C53.3889 41.5536 52.5 43.6997 52.5 45.9375V62.8125C52.5 63.9205 52.7182 65.0177 53.1423 66.0414C53.5663 67.0651 54.1878 67.9952 54.9713 68.7787C55.7548 69.5622 56.6849 70.1837 57.7086 70.6077C58.7323 71.0318 59.8295 71.25 60.9375 71.25H119.062C120.171 71.25 121.268 71.0318 122.291 70.6077C123.315 70.1837 124.245 69.5622 125.029 68.7787C125.812 67.9952 126.434 67.0651 126.858 66.0414C127.282 65.0177 127.5 63.9205 127.5 62.8125V45.9375C127.5 43.6997 126.611 41.5536 125.029 39.9713C123.446 38.3889 121.3 37.5 119.062 37.5H60.9375Z" fill="url(#paint2_linear_20_1531)"/>
<path d="M149.5 119.375C153.587 119.375 157.635 120.18 161.411 121.744C165.187 123.308 168.618 125.601 171.509 128.491C174.399 131.382 176.692 134.813 178.256 138.589C179.82 142.365 180.625 146.413 180.625 150.5C180.625 154.587 179.82 158.635 178.256 162.411C176.692 166.187 174.399 169.618 171.509 172.509C168.618 175.399 165.187 177.692 161.411 179.256C157.635 180.82 153.587 181.625 149.5 181.625C141.245 181.625 133.328 178.346 127.491 172.509C121.654 166.672 118.375 158.755 118.375 150.5C118.375 142.245 121.654 134.328 127.491 128.491C133.328 122.654 141.245 119.375 149.5 119.375Z" fill="url(#paint3_linear_20_1531)"/>
<path d="M138.586 139.586C139.015 139.157 139.582 138.892 140.187 138.838C140.792 138.784 141.396 138.944 141.895 139.29L142.258 139.586L149.5 146.833L156.742 139.586C157.172 139.157 157.738 138.892 158.343 138.838C158.948 138.784 159.552 138.944 160.051 139.29L160.415 139.586C160.843 140.015 161.108 140.582 161.162 141.187C161.216 141.792 161.056 142.396 160.71 142.895L160.415 143.258L153.168 150.5L160.415 157.742C160.843 158.172 161.108 158.738 161.162 159.343C161.216 159.948 161.056 160.552 160.71 161.051L160.415 161.415C159.985 161.843 159.418 162.108 158.813 162.162C158.209 162.216 157.604 162.056 157.105 161.71L156.742 161.415L149.5 154.168L142.258 161.415C141.829 161.843 141.262 162.108 140.657 162.162C140.052 162.216 139.448 162.056 138.949 161.71L138.586 161.415C138.157 160.985 137.892 160.418 137.838 159.813C137.784 159.209 137.944 158.604 138.29 158.105L138.586 157.742L145.833 150.5L138.586 143.258C138.157 142.829 137.892 142.262 137.838 141.657C137.784 141.052 137.944 140.448 138.29 139.949L138.586 139.586Z" fill="url(#paint4_linear_20_1531)"/>
<defs>
<linearGradient id="paint0_linear_20_1531" x1="89.5125" y1="156.75" x2="89.5125" y2="138.75" gradientUnits="userSpaceOnUse">
<stop stop-color="#9DEAFF"/>
<stop offset="0.716" stop-color="#58AAFE"/>
</linearGradient>
<linearGradient id="paint1_linear_20_1531" x1="71.4038" y1="43.065" x2="94.4813" y2="204.619" gradientUnits="userSpaceOnUse">
<stop stop-color="#20AC9D"/>
<stop offset="1" stop-color="#2052CB"/>
</linearGradient>
<linearGradient id="paint2_linear_20_1531" x1="78.3675" y1="31.71" x2="118.924" y2="87.7988" gradientUnits="userSpaceOnUse">
<stop stop-color="#9FF0F9"/>
<stop offset="1" stop-color="#6CE0FF"/>
</linearGradient>
<linearGradient id="paint3_linear_20_1531" x1="128.102" y1="123.266" x2="175.437" y2="192" gradientUnits="userSpaceOnUse">
<stop stop-color="#F83F54"/>
<stop offset="1" stop-color="#CA2134"/>
</linearGradient>
<linearGradient id="paint4_linear_20_1531" x1="139.182" y1="151.532" x2="151.336" y2="164.169" gradientUnits="userSpaceOnUse">
<stop stop-color="#FDFDFD"/>
<stop offset="1" stop-color="#FECBE6"/>
</linearGradient>
</defs>
</svg>
