<svg width="143" height="158" viewBox="0 0 143 158" fill="none" xmlns="http://www.w3.org/2000/svg">
<path d="M7.5 127.5H122.107C122.107 127.5 120 131.25 120 135C120 138.75 122.107 142.5 122.107 142.5H15C13.0109 142.5 11.1032 141.71 9.6967 140.303C8.29018 138.897 7.5 136.989 7.5 135V127.5Z" fill="url(#paint0_linear_593_8)"/>
<path d="M0 18.75C0 13.7772 1.97544 9.00805 5.49175 5.49175C9.00805 1.97544 13.7772 0 18.75 0H105C107.462 0 109.9 0.484983 112.175 1.42726C114.45 2.36953 116.517 3.75065 118.258 5.49175C119.999 7.23285 121.38 9.29983 122.323 11.5747C123.265 13.8495 123.75 16.2877 123.75 18.75V125.625C123.75 127.117 123.157 128.548 122.102 129.602C121.048 130.657 119.617 131.25 118.125 131.25H11.25C11.25 133.239 12.0402 135.147 13.4467 136.553C14.8532 137.96 16.7609 138.75 18.75 138.75H118.125C119.617 138.75 121.048 139.343 122.102 140.398C123.157 141.452 123.75 142.883 123.75 144.375C123.75 145.867 123.157 147.298 122.102 148.352C121.048 149.407 119.617 150 118.125 150H18.75C13.7772 150 9.00805 148.025 5.49175 144.508C1.97544 140.992 0 136.223 0 131.25V18.75Z" fill="url(#paint1_linear_593_8)"/>
<path d="M22.5 30C22.5 28.0109 23.2902 26.1032 24.6967 24.6967C26.1032 23.2902 28.0109 22.5 30 22.5H90C91.9891 22.5 93.8968 23.2902 95.3033 24.6967C96.7098 26.1032 97.5 28.0109 97.5 30V45C97.5 46.9891 96.7098 48.8968 95.3033 50.3033C93.8968 51.7098 91.9891 52.5 90 52.5H30C28.0109 52.5 26.1032 51.7098 24.6967 50.3033C23.2902 48.8968 22.5 46.9891 22.5 45V30Z" fill="url(#paint2_linear_593_8)"/>
<path d="M0 18.75C0 13.7772 1.97544 9.00805 5.49175 5.49175C9.00805 1.97544 13.7772 0 18.75 0H105C107.462 0 109.9 0.484983 112.175 1.42726C114.45 2.36953 116.517 3.75065 118.258 5.49175C119.999 7.23285 121.38 9.29983 122.323 11.5747C123.265 13.8495 123.75 16.2877 123.75 18.75V144.375C123.75 145.867 123.157 147.298 122.102 148.352C121.048 149.407 119.617 150 118.125 150H18.75C13.7772 150 9.00805 148.025 5.49175 144.508C1.97544 140.992 0 136.223 0 131.25V18.75Z" fill="url(#paint3_radial_593_8)" fill-opacity="0.3"/>
<path d="M0 18.75C0 13.7772 1.97544 9.00805 5.49175 5.49175C9.00805 1.97544 13.7772 0 18.75 0H105C107.462 0 109.9 0.484983 112.175 1.42726C114.45 2.36953 116.517 3.75065 118.258 5.49175C119.999 7.23285 121.38 9.29983 122.323 11.5747C123.265 13.8495 123.75 16.2877 123.75 18.75V144.375C123.75 145.867 123.157 147.298 122.102 148.352C121.048 149.407 119.617 150 118.125 150H18.75C13.7772 150 9.00805 148.025 5.49175 144.508C1.97544 140.992 0 136.223 0 131.25V18.75Z" fill="url(#paint4_radial_593_8)" fill-opacity="0.3"/>
<path d="M116.25 104.227C120.065 103.705 123.829 102.857 127.5 101.692C130.135 100.842 132.592 99.8499 134.872 98.7149C137.527 97.3874 140.175 95.7149 142.5 93.6899V138.75C142.5 149.1 125.708 157.5 105 157.5C89.625 157.5 76.41 152.872 70.62 146.25C68.61 143.955 67.5 141.42 67.5 138.75V93.6899C69.825 95.7149 72.4725 97.3874 75.1275 98.7149C83.16 102.735 93.7275 105 105 105C108.855 105 112.627 104.737 116.25 104.22" fill="url(#paint5_linear_593_8)"/>
<path d="M116.25 75.855C120.088 76.4394 123.857 77.4093 127.5 78.75C136.605 82.17 142.5 87.615 142.5 93.75C142.5 99.885 136.605 105.33 127.5 108.75C123.857 110.091 120.088 111.061 116.25 111.645C112.527 112.212 108.766 112.498 105 112.5C84.2925 112.5 67.5 104.1 67.5 93.75C67.5 83.4 84.2925 75 105 75C108.923 75 112.695 75.3 116.25 75.855Z" fill="url(#paint6_linear_593_8)"/>
<defs>
<linearGradient id="paint0_linear_593_8" x1="61.305" y1="138" x2="61.305" y2="120" gradientUnits="userSpaceOnUse">
<stop stop-color="#9DEAFF"/>
<stop offset="0.716" stop-color="#58AAFE"/>
</linearGradient>
<linearGradient id="paint1_linear_593_8" x1="42.6975" y1="28.065" x2="65.1075" y2="189.81" gradientUnits="userSpaceOnUse">
<stop stop-color="#20AC9D"/>
<stop offset="1" stop-color="#2052CB"/>
</linearGradient>
<linearGradient id="paint2_linear_593_8" x1="48.3675" y1="17.355" x2="82.8975" y2="71.085" gradientUnits="userSpaceOnUse">
<stop stop-color="#9FF0F9"/>
<stop offset="1" stop-color="#6CE0FF"/>
</linearGradient>
<radialGradient id="paint3_radial_593_8" cx="0" cy="0" r="1" gradientUnits="userSpaceOnUse" gradientTransform="translate(86.2511 138.751) rotate(140.194) scale(29.2885 31.0769)">
<stop stop-color="#4A43CB"/>
<stop offset="1" stop-color="#4A43CB" stop-opacity="0"/>
</radialGradient>
<radialGradient id="paint4_radial_593_8" cx="0" cy="0" r="1" gradientUnits="userSpaceOnUse" gradientTransform="translate(82.5 131.25) rotate(-90) scale(56.25 29.0625)">
<stop stop-color="#171155"/>
<stop offset="0.328" stop-color="#171155"/>
<stop offset="1" stop-color="#4A43CB" stop-opacity="0"/>
</radialGradient>
<linearGradient id="paint5_linear_593_8" x1="85.2075" y1="79.3124" x2="128.947" y2="150.54" gradientUnits="userSpaceOnUse">
<stop stop-color="#3BD5FF"/>
<stop offset="1" stop-color="#4894FE"/>
</linearGradient>
<linearGradient id="paint6_linear_593_8" x1="129.997" y1="116.25" x2="84.165" y2="75" gradientUnits="userSpaceOnUse">
<stop stop-color="#66C0FF"/>
<stop offset="1" stop-color="#C8F3FF"/>
</linearGradient>
</defs>
</svg>
