<svg width="144" height="140" viewBox="0 0 144 140" fill="none" xmlns="http://www.w3.org/2000/svg">
<path d="M0 18C0 13.2261 1.89642 8.64773 5.27208 5.27208C8.64773 1.89642 13.2261 0 18 0H126C130.774 0 135.352 1.89642 138.728 5.27208C142.104 8.64773 144 13.2261 144 18V90C144 94.7739 142.104 99.3523 138.728 102.728C135.352 106.104 130.774 108 126 108H18C16.44 108 14.94 107.811 13.5 107.433V96.633C7.974 91.683 4.5 84.501 4.5 76.5H0V18Z" fill="url(#paint0_linear_579_428)"/>
<path d="M27 31.5C27 30.3065 27.4741 29.1619 28.318 28.318C29.1619 27.4741 30.3065 27 31.5 27H112.5C113.693 27 114.838 27.4741 115.682 28.318C116.526 29.1619 117 30.3065 117 31.5C117 32.6935 116.526 33.8381 115.682 34.682C114.838 35.5259 113.693 36 112.5 36H31.5C30.3065 36 29.1619 35.5259 28.318 34.682C27.4741 33.8381 27 32.6935 27 31.5ZM76.5 63C75.3065 63 74.1619 63.4741 73.318 64.318C72.4741 65.1619 72 66.3065 72 67.5C72 68.6935 72.4741 69.8381 73.318 70.682C74.1619 71.5259 75.3065 72 76.5 72H112.5C113.693 72 114.838 71.5259 115.682 70.682C116.526 69.8381 117 68.6935 117 67.5C117 66.3065 116.526 65.1619 115.682 64.318C114.838 63.4741 113.693 63 112.5 63H76.5Z" fill="url(#paint1_linear_579_428)" fill-opacity="0.9"/>
<path d="M9 96.678C15.6604 101.127 23.4904 103.501 31.5 103.5C39.5096 103.501 47.3396 101.127 54 96.678V135C54 135.836 53.7673 136.655 53.3279 137.366C52.8886 138.077 52.2599 138.651 51.5125 139.025C50.765 139.399 49.9282 139.557 49.0959 139.482C48.2635 139.407 47.4686 139.101 46.8 138.6L34.2 129.15C33.4211 128.566 32.4737 128.25 31.5 128.25C30.5263 128.25 29.5789 128.566 28.8 129.15L16.2 138.6C15.5314 139.101 14.7365 139.407 13.9041 139.482C13.0718 139.557 12.235 139.399 11.4875 139.025C10.7401 138.651 10.1114 138.077 9.67207 137.366C9.23272 136.655 9 135.836 9 135V96.678Z" fill="url(#paint2_radial_579_428)"/>
<path d="M31.5 108C23.1457 108 15.1335 104.681 9.22614 98.7739C3.31874 92.8665 0 84.8543 0 76.5C0 68.1457 3.31874 60.1335 9.22614 54.2261C15.1335 48.3187 23.1457 45 31.5 45C39.8543 45 47.8665 48.3187 53.7739 54.2261C59.6813 60.1335 63 68.1457 63 76.5C63 84.8543 59.6813 92.8665 53.7739 98.7739C47.8665 104.681 39.8543 108 31.5 108Z" fill="url(#paint3_radial_579_428)"/>
<defs>
<linearGradient id="paint0_linear_579_428" x1="5.139" y1="20.25" x2="75.942" y2="118.323" gradientUnits="userSpaceOnUse">
<stop stop-color="#0FAFFF"/>
<stop offset="1" stop-color="#2764E7"/>
</linearGradient>
<linearGradient id="paint1_linear_579_428" x1="157.5" y1="130.5" x2="108.252" y2="-17.955" gradientUnits="userSpaceOnUse">
<stop stop-color="#9DEAFF"/>
<stop offset="1" stop-color="white"/>
</linearGradient>
<radialGradient id="paint2_radial_579_428" cx="0" cy="0" r="1" gradientUnits="userSpaceOnUse" gradientTransform="translate(31.5 90) rotate(90) scale(67.5 99.3321)">
<stop stop-color="#163697"/>
<stop offset="1" stop-color="#29C3FF"/>
</radialGradient>
<radialGradient id="paint3_radial_579_428" cx="0" cy="0" r="1" gradientUnits="userSpaceOnUse" gradientTransform="translate(-136.123 -175.503) rotate(56.615) scale(351.65 301.172)">
<stop offset="0.772" stop-color="#FFCD0F"/>
<stop offset="0.991" stop-color="#E67505"/>
</radialGradient>
</defs>
</svg>
