<svg width="150" height="165" viewBox="0 0 150 165" fill="none" xmlns="http://www.w3.org/2000/svg">
<path d="M7.5 123.75H118.125C118.125 123.75 116.25 126 116.25 135C116.25 144 118.125 146.25 118.125 146.25H26.25C21.2772 146.25 16.5081 144.275 12.9917 140.758C9.47544 137.242 7.5 132.473 7.5 127.5V123.75Z" fill="url(#paint0_linear_593_17)"/>
<path d="M23.4375 0C17.2215 0 11.2601 2.4693 6.86469 6.86469C2.4693 11.2601 0 17.2215 0 23.4375V126.562C0 132.779 2.4693 138.74 6.86469 143.135C11.2601 147.531 17.2215 150 23.4375 150H115.312C116.556 150 117.748 149.506 118.627 148.627C119.506 147.748 120 146.556 120 145.312C120 144.069 119.506 142.877 118.627 141.998C117.748 141.119 116.556 140.625 115.312 140.625H23.4375C20.1957 140.626 17.0532 139.506 14.5418 137.456C12.0305 135.406 10.3046 132.551 9.65625 129.375H111.562C113.8 129.375 115.946 128.486 117.529 126.904C119.111 125.321 120 123.175 120 120.938V23.4375C120 17.2215 117.531 11.2601 113.135 6.86469C108.74 2.4693 102.779 0 96.5625 0H23.4375Z" fill="url(#paint1_linear_593_17)"/>
<path d="M30.9375 22.5C28.6997 22.5 26.5536 23.3889 24.9713 24.9713C23.3889 26.5536 22.5 28.6997 22.5 30.9375V47.8125C22.5 48.9205 22.7182 50.0177 23.1423 51.0414C23.5663 52.0651 24.1878 52.9952 24.9713 53.7787C25.7548 54.5622 26.6849 55.1837 27.7086 55.6077C28.7323 56.0318 29.8295 56.25 30.9375 56.25H89.0625C90.1705 56.25 91.2677 56.0318 92.2914 55.6077C93.3151 55.1837 94.2452 54.5622 95.0287 53.7787C95.8122 52.9952 96.4337 52.0651 96.8577 51.0414C97.2818 50.0177 97.5 48.9205 97.5 47.8125V30.9375C97.5 28.6997 96.6111 26.5536 95.0287 24.9713C93.4464 23.3889 91.3003 22.5 89.0625 22.5H30.9375Z" fill="url(#paint2_linear_593_17)"/>
<path d="M119.125 102C123.212 102 127.26 102.805 131.036 104.369C134.812 105.933 138.243 108.226 141.134 111.116C144.024 114.007 146.317 117.438 147.881 121.214C149.445 124.99 150.25 129.038 150.25 133.125C150.25 137.212 149.445 141.26 147.881 145.036C146.317 148.812 144.024 152.243 141.134 155.134C138.243 158.024 134.812 160.317 131.036 161.881C127.26 163.445 123.212 164.25 119.125 164.25C110.87 164.25 102.953 160.971 97.1163 155.134C91.2792 149.297 88 141.38 88 133.125C88 124.87 91.2792 116.953 97.1163 111.116C102.953 105.279 110.87 102 119.125 102Z" fill="url(#paint3_linear_593_17)"/>
<path d="M108.211 122.211C108.64 121.782 109.207 121.517 109.812 121.463C110.417 121.409 111.021 121.569 111.52 121.915L111.883 122.211L119.125 129.458L126.367 122.211C126.797 121.782 127.363 121.517 127.968 121.463C128.573 121.409 129.177 121.569 129.676 121.915L130.04 122.211C130.468 122.64 130.733 123.207 130.787 123.812C130.841 124.417 130.681 125.021 130.335 125.52L130.04 125.883L122.793 133.125L130.04 140.367C130.468 140.797 130.733 141.363 130.787 141.968C130.841 142.573 130.681 143.177 130.335 143.676L130.04 144.04C129.61 144.468 129.043 144.733 128.438 144.787C127.834 144.841 127.229 144.681 126.73 144.335L126.367 144.04L119.125 136.793L111.883 144.04C111.454 144.468 110.887 144.733 110.282 144.787C109.677 144.841 109.073 144.681 108.574 144.335L108.211 144.04C107.782 143.61 107.517 143.043 107.463 142.438C107.409 141.834 107.569 141.229 107.915 140.73L108.211 140.367L115.458 133.125L108.211 125.883C107.782 125.454 107.517 124.887 107.463 124.282C107.409 123.677 107.569 123.073 107.915 122.574L108.211 122.211Z" fill="url(#paint4_linear_593_17)"/>
<defs>
<linearGradient id="paint0_linear_593_17" x1="59.5125" y1="141.75" x2="59.5125" y2="123.75" gradientUnits="userSpaceOnUse">
<stop stop-color="#9DEAFF"/>
<stop offset="0.716" stop-color="#58AAFE"/>
</linearGradient>
<linearGradient id="paint1_linear_593_17" x1="41.4038" y1="28.065" x2="64.4813" y2="189.619" gradientUnits="userSpaceOnUse">
<stop stop-color="#20AC9D"/>
<stop offset="1" stop-color="#2052CB"/>
</linearGradient>
<linearGradient id="paint2_linear_593_17" x1="48.3675" y1="16.71" x2="88.9238" y2="72.7988" gradientUnits="userSpaceOnUse">
<stop stop-color="#9FF0F9"/>
<stop offset="1" stop-color="#6CE0FF"/>
</linearGradient>
<linearGradient id="paint3_linear_593_17" x1="97.7266" y1="105.891" x2="145.062" y2="174.625" gradientUnits="userSpaceOnUse">
<stop stop-color="#F83F54"/>
<stop offset="1" stop-color="#CA2134"/>
</linearGradient>
<linearGradient id="paint4_linear_593_17" x1="108.807" y1="134.157" x2="120.961" y2="146.794" gradientUnits="userSpaceOnUse">
<stop stop-color="#FDFDFD"/>
<stop offset="1" stop-color="#FECBE6"/>
</linearGradient>
</defs>
</svg>
