<svg width="158" height="147" viewBox="0 0 158 147" fill="none" xmlns="http://www.w3.org/2000/svg">
<path d="M112.637 75.7826C110.496 75.2076 108.262 75.0603 106.064 75.3491C103.865 75.6378 101.745 76.357 99.8251 77.4656C97.9048 78.5741 96.2217 80.0502 94.8722 81.8095C93.5226 83.5688 92.533 85.5768 91.96 87.7188L87.595 104.02C85.2781 112.667 86.4911 121.88 90.967 129.632C95.4429 137.385 102.815 143.041 111.462 145.358C120.109 147.675 129.321 146.462 137.074 141.986C144.826 137.51 150.483 130.138 152.8 121.491L157.165 105.179C158.32 100.859 157.713 96.2565 155.477 92.3837C153.241 88.5108 149.559 85.6839 145.24 84.5238L112.637 75.7826Z" fill="url(#paint0_radial_579_419)"/>
<path d="M45.3624 75.7824C47.5031 75.2091 49.7357 75.0631 51.9329 75.3527C54.13 75.6423 56.2486 76.3618 58.1677 77.4702C60.0867 78.5786 61.7687 80.0542 63.1175 81.8126C64.4662 83.571 65.4555 85.5779 66.0286 87.7187L70.3936 104.02C71.6069 108.321 71.9538 112.821 71.4141 117.258C70.8744 121.694 69.459 125.979 67.2499 129.864C65.0407 133.75 62.082 137.157 58.5453 139.89C55.0086 142.622 50.9644 144.625 46.6474 145.782C42.3305 146.939 37.8267 147.227 33.3976 146.629C28.9685 146.031 24.7022 144.56 20.8463 142.3C16.9904 140.04 13.6217 137.037 10.9358 133.465C8.24985 129.893 6.30016 125.823 5.19985 121.491L0.823604 105.179C-0.330816 100.857 0.277989 96.2535 2.51621 92.3804C4.75444 88.5073 8.43892 85.6813 12.7599 84.5237L45.3624 75.7824Z" fill="url(#paint1_radial_579_419)"/>
<path d="M62.125 67.75C57.6495 67.75 53.3572 69.5279 50.1926 72.6926C47.0279 75.8572 45.25 80.1495 45.25 84.625V112.75C45.25 121.701 48.8058 130.286 55.1351 136.615C61.4645 142.944 70.0489 146.5 79 146.5C87.9511 146.5 96.5355 142.944 102.865 136.615C109.194 130.286 112.75 121.701 112.75 112.75V84.625C112.75 80.1495 110.972 75.8572 107.807 72.6926C104.643 69.5279 100.351 67.75 95.875 67.75H62.125Z" fill="url(#paint2_radial_579_419)"/>
<path d="M79 0.25C71.5408 0.25 64.3871 3.21316 59.1126 8.48762C53.8382 13.7621 50.875 20.9158 50.875 28.375C50.875 35.8342 53.8382 42.9879 59.1126 48.2624C64.3871 53.5368 71.5408 56.5 79 56.5C86.4592 56.5 93.6129 53.5368 98.8874 48.2624C104.162 42.9879 107.125 35.8342 107.125 28.375C107.125 20.9158 104.162 13.7621 98.8874 8.48762C93.6129 3.21316 86.4592 0.25 79 0.25Z" fill="url(#paint3_radial_579_419)"/>
<path d="M22.75 22.75C16.7826 22.75 11.0597 25.1205 6.8401 29.3401C2.62053 33.5597 0.25 39.2826 0.25 45.25C0.25 51.2174 2.62053 56.9403 6.8401 61.1599C11.0597 65.3795 16.7826 67.75 22.75 67.75C28.7174 67.75 34.4403 65.3795 38.6599 61.1599C42.8795 56.9403 45.25 51.2174 45.25 45.25C45.25 39.2826 42.8795 33.5597 38.6599 29.3401C34.4403 25.1205 28.7174 22.75 22.75 22.75Z" fill="url(#paint4_radial_579_419)"/>
<path d="M135.25 22.75C129.283 22.75 123.56 25.1205 119.34 29.3401C115.121 33.5597 112.75 39.2826 112.75 45.25C112.75 51.2174 115.121 56.9403 119.34 61.1599C123.56 65.3795 129.283 67.75 135.25 67.75C141.217 67.75 146.94 65.3795 151.16 61.1599C155.379 56.9403 157.75 51.2174 157.75 45.25C157.75 39.2826 155.379 33.5597 151.16 29.3401C146.94 25.1205 141.217 22.75 135.25 22.75Z" fill="url(#paint5_radial_579_419)"/>
<defs>
<radialGradient id="paint0_radial_579_419" cx="0" cy="0" r="1" gradientUnits="userSpaceOnUse" gradientTransform="translate(110.638 95.1948) rotate(78.837) scale(52.3028 52.3028)">
<stop stop-color="#0078D4"/>
<stop offset="1" stop-color="#004695"/>
</radialGradient>
<radialGradient id="paint1_radial_579_419" cx="0" cy="0" r="1" gradientUnits="userSpaceOnUse" gradientTransform="translate(17.7211 78.5499) rotate(61.0557) scale(77.6676 55.9054)">
<stop stop-color="#008CE2"/>
<stop offset="1" stop-color="#0068C6"/>
</radialGradient>
<radialGradient id="paint2_radial_579_419" cx="0" cy="0" r="1" gradientUnits="userSpaceOnUse" gradientTransform="translate(72.4939 95.4016) rotate(63.608) scale(47.5219 43.6395)">
<stop offset="0.339" stop-color="#3DCBFF"/>
<stop offset="1" stop-color="#14B1FF"/>
</radialGradient>
<radialGradient id="paint3_radial_579_419" cx="0" cy="0" r="1" gradientUnits="userSpaceOnUse" gradientTransform="translate(73.5851 19.9953) rotate(59.931) scale(35.1344)">
<stop offset="0.339" stop-color="#3DCBFF"/>
<stop offset="1" stop-color="#14B1FF"/>
</radialGradient>
<radialGradient id="paint4_radial_579_419" cx="0" cy="0" r="1" gradientUnits="userSpaceOnUse" gradientTransform="translate(13.2739 36.3935) rotate(47.573) scale(36.8976)">
<stop stop-color="#008CE2"/>
<stop offset="1" stop-color="#0068C6"/>
</radialGradient>
<radialGradient id="paint5_radial_579_419" cx="0" cy="0" r="1" gradientUnits="userSpaceOnUse" gradientTransform="translate(128.026 35.3631) rotate(78.837) scale(33.0078)">
<stop stop-color="#0078D4"/>
<stop offset="1" stop-color="#004695"/>
</radialGradient>
</defs>
</svg>
